<svg width="205" height="24" viewBox="0 0 205 24" fill="none" xmlns="http://www.w3.org/2000/svg">
<g filter="url(#filter0_d_527_509)">
<path d="M10.61 19H7.31C7.03133 19 6.826 18.9413 6.694 18.824C6.57667 18.692 6.518 18.4867 6.518 18.208V3.952C6.518 3.67333 6.57667 3.47533 6.694 3.358C6.826 3.226 7.03133 3.16 7.31 3.16H9.598C9.87667 3.16 10.1113 3.204 10.302 3.292C10.5073 3.38 10.7053 3.534 10.896 3.754L15.164 8.638V3.952C15.164 3.67333 15.2227 3.47533 15.34 3.358C15.472 3.226 15.6773 3.16 15.956 3.16H19.256C19.5347 3.16 19.7327 3.226 19.85 3.358C19.982 3.47533 20.048 3.67333 20.048 3.952V18.208C20.048 18.4867 19.982 18.692 19.85 18.824C19.7327 18.9413 19.5347 19 19.256 19H15.956C15.6773 19 15.472 18.9413 15.34 18.824C15.2227 18.692 15.164 18.4867 15.164 18.208V15.502L11.402 10.948V18.208C11.402 18.4867 11.336 18.692 11.204 18.824C11.0867 18.9413 10.8887 19 10.61 19ZM38.4825 19H28.2745C27.9958 19 27.7905 18.9413 27.6585 18.824C27.5411 18.692 27.4825 18.4867 27.4825 18.208V3.952C27.4825 3.67333 27.5411 3.47533 27.6585 3.358C27.7905 3.226 27.9958 3.16 28.2745 3.16H38.4825C38.7611 3.16 38.9591 3.226 39.0765 3.358C39.2085 3.47533 39.2745 3.67333 39.2745 3.952V6.526C39.2745 6.80467 39.2085 7.01 39.0765 7.142C38.9591 7.25933 38.7611 7.318 38.4825 7.318H32.4105V9.012H36.7005C36.9791 9.012 37.1771 9.078 37.2945 9.21C37.4265 9.32733 37.4925 9.52533 37.4925 9.804V12.158C37.4925 12.4367 37.4265 12.642 37.2945 12.774C37.1771 12.8913 36.9791 12.95 36.7005 12.95H32.4105V14.842H38.4825C38.7611 14.842 38.9591 14.908 39.0765 15.04C39.2085 15.1573 39.2745 15.3553 39.2745 15.634V18.208C39.2745 18.4867 39.2085 18.692 39.0765 18.824C38.9591 18.9413 38.7611 19 38.4825 19ZM51.249 7.12V9.936H52.899C53.2803 9.936 53.537 9.84067 53.669 9.65C53.801 9.44467 53.867 9.19533 53.867 8.902V8.154C53.867 7.86067 53.801 7.61867 53.669 7.428C53.537 7.22267 53.2803 7.12 52.899 7.12H51.249ZM50.457 19H47.069C46.7903 19 46.585 18.9413 46.453 18.824C46.3357 18.692 46.277 18.4867 46.277 18.208V3.952C46.277 3.67333 46.3357 3.47533 46.453 3.358C46.585 3.226 46.7903 3.16 47.069 3.16H54.395C56.0377 3.16 57.167 3.50467 57.783 4.194C58.4137 4.86867 58.729 5.74867 58.729 6.834V7.846C58.729 8.462 58.6337 8.99 58.443 9.43C58.267 9.85533 57.9517 10.1633 57.497 10.354C58.289 10.442 58.927 10.7647 59.411 11.322C59.9097 11.8793 60.159 12.62 60.159 13.544V18.208C60.159 18.4867 60.093 18.692 59.961 18.824C59.8437 18.9413 59.6457 19 59.367 19H55.957C55.6783 19 55.473 18.9413 55.341 18.824C55.2237 18.692 55.165 18.4867 55.165 18.208V14.842C55.165 14.5193 55.099 14.2847 54.967 14.138C54.8497 13.9767 54.637 13.896 54.329 13.896H51.249V18.208C51.249 18.4867 51.183 18.692 51.051 18.824C50.9337 18.9413 50.7357 19 50.457 19ZM75.2326 19H67.8186C67.5399 19 67.3346 18.9413 67.2026 18.824C67.0853 18.692 67.0266 18.4867 67.0266 18.208V3.952C67.0266 3.67333 67.0853 3.47533 67.2026 3.358C67.3346 3.226 67.5399 3.16 67.8186 3.16H75.2326C77.0659 3.16 78.4226 3.52667 79.3026 4.26C80.1973 4.99333 80.6446 6.12267 80.6446 7.648V14.512C80.6446 16.0373 80.1973 17.1667 79.3026 17.9C78.4226 18.6333 77.0659 19 75.2326 19ZM72.0206 7.362V14.842H74.6386C74.9906 14.842 75.2473 14.754 75.4086 14.578C75.5846 14.402 75.6726 14.1307 75.6726 13.764V8.418C75.6726 8.05133 75.5846 7.78733 75.4086 7.626C75.2473 7.45 74.9906 7.362 74.6386 7.362H72.0206ZM98.8407 19H88.6327C88.354 19 88.1487 18.9413 88.0167 18.824C87.8993 18.692 87.8407 18.4867 87.8407 18.208V3.952C87.8407 3.67333 87.8993 3.47533 88.0167 3.358C88.1487 3.226 88.354 3.16 88.6327 3.16H98.8407C99.1193 3.16 99.3173 3.226 99.4347 3.358C99.5667 3.47533 99.6327 3.67333 99.6327 3.952V6.526C99.6327 6.80467 99.5667 7.01 99.4347 7.142C99.3173 7.25933 99.1193 7.318 98.8407 7.318H92.7687V9.012H97.0587C97.3373 9.012 97.5353 9.078 97.6527 9.21C97.7847 9.32733 97.8507 9.52533 97.8507 9.804V12.158C97.8507 12.4367 97.7847 12.642 97.6527 12.774C97.5353 12.8913 97.3373 12.95 97.0587 12.95H92.7687V14.842H98.8407C99.1193 14.842 99.3173 14.908 99.4347 15.04C99.5667 15.1573 99.6327 15.3553 99.6327 15.634V18.208C99.6327 18.4867 99.5667 18.692 99.4347 18.824C99.3173 18.9413 99.1193 19 98.8407 19ZM111.607 7.12V9.936H113.257C113.639 9.936 113.895 9.84067 114.027 9.65C114.159 9.44467 114.225 9.19533 114.225 8.902V8.154C114.225 7.86067 114.159 7.61867 114.027 7.428C113.895 7.22267 113.639 7.12 113.257 7.12H111.607ZM110.815 19H107.427C107.149 19 106.943 18.9413 106.811 18.824C106.694 18.692 106.635 18.4867 106.635 18.208V3.952C106.635 3.67333 106.694 3.47533 106.811 3.358C106.943 3.226 107.149 3.16 107.427 3.16H114.753C116.396 3.16 117.525 3.50467 118.141 4.194C118.772 4.86867 119.087 5.74867 119.087 6.834V7.846C119.087 8.462 118.992 8.99 118.801 9.43C118.625 9.85533 118.31 10.1633 117.855 10.354C118.647 10.442 119.285 10.7647 119.769 11.322C120.268 11.8793 120.517 12.62 120.517 13.544V18.208C120.517 18.4867 120.451 18.692 120.319 18.824C120.202 18.9413 120.004 19 119.725 19H116.315C116.037 19 115.831 18.9413 115.699 18.824C115.582 18.692 115.523 18.4867 115.523 18.208V14.842C115.523 14.5193 115.457 14.2847 115.325 14.138C115.208 13.9767 114.995 13.896 114.687 13.896H111.607V18.208C111.607 18.4867 111.541 18.692 111.409 18.824C111.292 18.9413 111.094 19 110.815 19ZM139.375 19H128.177C127.898 19 127.693 18.9413 127.561 18.824C127.443 18.692 127.385 18.4867 127.385 18.208V3.952C127.385 3.67333 127.443 3.47533 127.561 3.358C127.693 3.226 127.898 3.16 128.177 3.16H131.587C131.865 3.16 132.063 3.226 132.181 3.358C132.313 3.47533 132.379 3.67333 132.379 3.952V14.842H135.393V11.278C135.393 10.9993 135.451 10.8013 135.569 10.684C135.701 10.552 135.906 10.486 136.185 10.486H139.375C139.653 10.486 139.851 10.552 139.969 10.684C140.101 10.8013 140.167 10.9993 140.167 11.278V18.208C140.167 18.4867 140.101 18.692 139.969 18.824C139.851 18.9413 139.653 19 139.375 19ZM152.824 7.78L151.79 11.124H155.244L154.21 7.78C154.151 7.648 154.085 7.55267 154.012 7.494C153.953 7.43533 153.88 7.406 153.792 7.406H153.242C153.154 7.406 153.073 7.43533 153 7.494C152.941 7.55267 152.882 7.648 152.824 7.78ZM151.57 18.208C151.57 18.4867 151.504 18.692 151.372 18.824C151.254 18.9413 151.056 19 150.778 19H147.544C147.265 19 147.06 18.9413 146.928 18.824C146.81 18.692 146.752 18.4867 146.752 18.208V12.4C146.752 11.96 146.818 11.454 146.95 10.882C147.096 10.31 147.316 9.64267 147.61 8.88L149.524 3.886C149.612 3.63667 149.744 3.45333 149.92 3.336C150.11 3.21867 150.352 3.16 150.646 3.16H156.564C156.842 3.16 157.07 3.21867 157.246 3.336C157.436 3.45333 157.576 3.63667 157.664 3.886L159.578 8.88C159.871 9.64267 160.084 10.31 160.216 10.882C160.362 11.454 160.436 11.96 160.436 12.4V18.208C160.436 18.4867 160.37 18.692 160.238 18.824C160.12 18.9413 159.922 19 159.644 19H156.322C156.028 19 155.808 18.9413 155.662 18.824C155.53 18.692 155.464 18.4867 155.464 18.208V15.128H151.57V18.208ZM171.644 19H168.344C168.065 19 167.86 18.9413 167.728 18.824C167.611 18.692 167.552 18.4867 167.552 18.208V3.952C167.552 3.67333 167.611 3.47533 167.728 3.358C167.86 3.226 168.065 3.16 168.344 3.16H170.632C170.911 3.16 171.145 3.204 171.336 3.292C171.541 3.38 171.739 3.534 171.93 3.754L176.198 8.638V3.952C176.198 3.67333 176.257 3.47533 176.374 3.358C176.506 3.226 176.711 3.16 176.99 3.16H180.29C180.569 3.16 180.767 3.226 180.884 3.358C181.016 3.47533 181.082 3.67333 181.082 3.952V18.208C181.082 18.4867 181.016 18.692 180.884 18.824C180.767 18.9413 180.569 19 180.29 19H176.99C176.711 19 176.506 18.9413 176.374 18.824C176.257 18.692 176.198 18.4867 176.198 18.208V15.502L172.436 10.948V18.208C172.436 18.4867 172.37 18.692 172.238 18.824C172.121 18.9413 171.923 19 171.644 19ZM196.722 19H189.308C189.03 19 188.824 18.9413 188.692 18.824C188.575 18.692 188.516 18.4867 188.516 18.208V3.952C188.516 3.67333 188.575 3.47533 188.692 3.358C188.824 3.226 189.03 3.16 189.308 3.16H196.722C198.556 3.16 199.912 3.52667 200.792 4.26C201.687 4.99333 202.134 6.12267 202.134 7.648V14.512C202.134 16.0373 201.687 17.1667 200.792 17.9C199.912 18.6333 198.556 19 196.722 19ZM193.51 7.362V14.842H196.128C196.48 14.842 196.737 14.754 196.898 14.578C197.074 14.402 197.162 14.1307 197.162 13.764V8.418C197.162 8.05133 197.074 7.78733 196.898 7.626C196.737 7.45 196.48 7.362 196.128 7.362H193.51Z" fill="#FFF200"/>
</g>
<defs>
<filter id="filter0_d_527_509" x="0.518005" y="0.16" width="203.616" height="23.84" filterUnits="userSpaceOnUse" color-interpolation-filters="sRGB">
<feFlood flood-opacity="0" result="BackgroundImageFix"/>
<feColorMatrix in="SourceAlpha" type="matrix" values="0 0 0 0 0 0 0 0 0 0 0 0 0 0 0 0 0 0 127 0" result="hardAlpha"/>
<feOffset dx="-2" dy="1"/>
<feGaussianBlur stdDeviation="2"/>
<feComposite in2="hardAlpha" operator="out"/>
<feColorMatrix type="matrix" values="0 0 0 0 1 0 0 0 0 0.8 0 0 0 0 0.2 0 0 0 0.8 0"/>
<feBlend mode="normal" in2="BackgroundImageFix" result="effect1_dropShadow_527_509"/>
<feBlend mode="normal" in="SourceGraphic" in2="effect1_dropShadow_527_509" result="shape"/>
</filter>
</defs>
</svg>
