<svg width="116" height="96" viewBox="0 0 116 96" fill="none" xmlns="http://www.w3.org/2000/svg">
<g clip-path="url(#clip0_563_1382)">
<path d="M3.80625 94.0375H108.387C110.381 94.0375 112.194 92.4063 112.194 90.2313V14.2875C112.194 12.2938 110.562 10.4813 108.387 10.4813H56.1875C54.7375 10.4813 53.4688 9.75625 52.925 8.4875L49.8438 2.325C49.1187 1.05625 47.85 0.331253 46.5813 0.331253H3.80625C1.63125 0.331253 0 1.9625 0 4.1375V90.2313C0 92.225 1.63125 94.0375 3.80625 94.0375Z" fill="#EBEBEB"/>
<path d="M5.4375 95.6687H108.206C110.2 95.6687 112.012 94.0375 112.012 91.8625V15.9187C112.012 13.925 110.381 12.1125 108.206 12.1125H56.1875C54.7375 12.1125 53.4687 11.3875 52.925 10.1187L49.8437 3.95624C49.1187 2.68749 47.85 1.96249 46.5812 1.96249H3.80625C1.63125 1.96249 0 3.77499 0 5.76874V90.2312C0 93.1312 2.35625 95.6687 5.4375 95.6687Z" fill="white"/>
<path d="M109.113 16.6438H2.90002V54.8875H109.113V16.6438Z" fill="#F3F3F3"/>
<path d="M4.35002 16.6438H2.90002V54.8875H4.35002V16.6438Z" fill="white"/>
<path d="M109.113 16.6438H2.90002V18.275H109.113V16.6438Z" fill="white"/>
<path d="M116 23.7125V88.6C116 91.6812 113.644 94.0375 110.562 94.0375H5.4375C2.35625 94.0375 0 91.6812 0 88.6V32.4125C0 29.3312 2.35625 26.975 5.4375 26.975H58.3625C59.8125 26.975 61.2625 26.4312 62.1687 25.3437L67.6062 19.9062C68.6937 18.8187 69.9625 18.275 71.4125 18.275H110.562C113.644 18.275 116 20.8125 116 23.7125Z" fill="#EBEBEB"/>
<path d="M116 25.3437V90.2312C116 93.3125 113.644 95.6687 110.562 95.6687H5.4375C2.35625 95.6687 0 93.3125 0 90.2312V34.0437C0 30.9625 2.35625 28.6062 5.4375 28.6062H58.3625C59.8125 28.6062 61.2625 28.0625 62.1687 26.975L67.6062 21.5375C68.6937 20.45 69.9625 19.9062 71.4125 19.9062H110.562C113.644 19.9062 116 22.4437 116 25.3437Z" fill="url(#paint0_linear_563_1382)"/>
</g>
<defs>
<linearGradient id="paint0_linear_563_1382" x1="58" y1="19.9062" x2="58" y2="95.6687" gradientUnits="userSpaceOnUse">
<stop stop-color="white"/>
<stop offset="1" stop-color="white"/>
</linearGradient>
<clipPath id="clip0_563_1382">
<rect width="116" height="96" fill="white"/>
</clipPath>
</defs>
</svg>
